<svg width="87.5" height="87.5" viewBox="0 0 87.5 87.5" xmlns="http://www.w3.org/2000/svg"><g id="svgGroup" stroke-linecap="round" fill-rule="evenodd" font-size="9pt" stroke="#00ff33" stroke-width="0.25mm" fill="#00ff33" style="stroke:#00ff33;stroke-width:0.25mm;fill:#00ff33"><path d="M 75 87.5 L 12.5 87.5 L 12.5 75 L 0 75 L 0 50 L 12.5 50 L 12.5 37.5 L 0 37.5 L 0 12.5 L 12.5 12.5 L 12.5 0 L 62.5 0 L 62.5 12.5 L 75 12.5 L 75 37.5 L 62.5 37.5 L 62.5 50 L 87.5 50 L 87.5 75 L 75 75 L 75 87.5 Z M 12.5 75 L 12.5 50 L 37.5 50 L 37.5 62.5 L 62.5 62.5 L 62.5 75 L 12.5 75 Z M 62.5 12.5 L 62.5 37.5 L 37.5 37.5 L 37.5 25 L 25 25 L 25 12.5 L 62.5 12.5 Z" vector-effect="non-scaling-stroke"/></g></svg>